

<svg id="skeleton_pay" xmlns="http://www.w3.org/2000/svg" width="100%" height="100%" viewBox="0 0 750 1200" preserveAspectRatio="xMinYMin slice">
  <defs>
    <style>
      .cls-1, .cls-5 {
        fill: #fff;
      }

      .cls-2 {
        fill: #e4e4e4;
      }

      .cls-3, .cls-4 {
        fill: #f0f0f0;
      }

      .cls-4 {
        fill-rule: evenodd;
      }

      .cls-5 {
        stroke: #e4e4e4;
        stroke-linejoin: round;
        stroke-width: 2px;
      }
    </style>
  </defs>
  <g id="线框图">
    <rect id="矩形_1" data-name="矩形 1" class="cls-1" width="750" height="1206"/>
    <rect id="矩形_1046_拷贝" data-name="矩形 1046 拷贝" class="cls-2" width="750" height="1"/>
    <circle id="椭圆_5" data-name="椭圆 5" class="cls-3" cx="51" cy="326" r="20"/>
    <path id="矩形_1031_拷贝_20" data-name="矩形 1031 拷贝 20" class="cls-4" d="M397,503h720v1H397v-1Zm0,100h720v1H397v-1Z" transform="translate(-367 -128)"/>
    <rect id="矩形_1031_拷贝_21" data-name="矩形 1031 拷贝 21" class="cls-3" x="30" y="576" width="720" height="1"/>
    <rect id="矩形_1_拷贝_2" data-name="矩形 1 拷贝 2" class="cls-3" x="28" y="238" width="94" height="16"/>
    <rect id="矩形_1_拷贝_3" data-name="矩形 1 拷贝 3" class="cls-3" x="95" y="318" width="120" height="16"/>
    <circle id="椭圆_5_拷贝_2" data-name="椭圆 5 拷贝 2" class="cls-3" cx="51" cy="426" r="20"/>
    <rect id="矩形_1_拷贝_4" data-name="矩形 1 拷贝 4" class="cls-3" x="95" y="418" width="120" height="16"/>
    <path id="_" data-name="¥" class="cls-4" d="M708.253,204.33l23.039,41.758h-15.24v7.92h19.679l0.12,0.12v9.959h-19.8v7.92h19.8v18h15.12v-18H770.89v-7.92H750.971v-9.959l0.12-.12h19.8v-7.92H755.531L778.57,204.33H761.53l-18.119,36.118L725.292,204.33H708.253Z" transform="translate(-367 -128)"/>
    <circle id="椭圆_5_拷贝_3" data-name="椭圆 5 拷贝 3" class="cls-3" cx="51" cy="525" r="20"/>
    <rect id="矩形_1_拷贝_5" data-name="矩形 1 拷贝 5" class="cls-3" x="95" y="517" width="120" height="16"/>
    <rect id="矩形_1_拷贝_6" data-name="矩形 1 拷贝 6" class="cls-3" x="30" y="621" width="382" height="16"/>
    <circle id="椭圆_21_拷贝_16" data-name="椭圆 21 拷贝 16" class="cls-5" cx="700" cy="526" r="20"/>
    <circle id="椭圆_21_拷贝_16-2" data-name="椭圆 21 拷贝 16" class="cls-5" cx="700" cy="426" r="20"/>
    <circle id="椭圆_21_拷贝_17" data-name="椭圆 21 拷贝 17" class="cls-5" cx="700" cy="326" r="20"/>
  </g>
</svg>